<svg xmlns="http://www.w3.org/2000/svg" xmlns:svg="http://www.w3.org/2000/svg" xmlns:xlink="http://www.w3.org/1999/xlink" id="svg2" width="86" height="86" x="0" y="0" enable-background="new 0 0 86 86" version="1.1" viewBox="0 0 86 86" xml:space="preserve"><metadata id="metadata23"/><defs id="defs21"><radialGradient id="radialGradient4187" cx="42.999" cy="43.002" r="42.701" fx="42.999" fy="43.002" gradientTransform="matrix(0.00178111,0.99529154,-1.0000183,0.00178958,85.925515,0.1280033)" gradientUnits="userSpaceOnUse" xlink:href="#SVGID_1_"/></defs><g id="Layer_1" transform="translate(0.18220339,0)"><linearGradient id="SVGID_1_" x1="12.806" x2="73.193" y1="73.194" y2="12.807" gradientUnits="userSpaceOnUse"><stop style="stop-color:#d85a5a;stop-opacity:1" id="stop7" offset="0"/><stop style="stop-color:#833;stop-opacity:1" id="stop9" offset="1"/></linearGradient><g id="g3006"><path style="fill:url(#radialGradient4187);fill-opacity:1" id="circle11" d="m 85.699797,43 c 0,15.94882 0.0015,0.0058 0,41.277 -5.1e-5,1.399167 0.0019,1.423038 -1.606,1.423 -83.79349988,-0.002 1.513365,0.0095 -82.3710004,0 -1.42067041,-1.61e-4 -1.42282843,-0.01625 -1.42299999,-1.422998 -0.003251,-26.658299 0,-26.661161 0,-41.277 C 0.29979661,19.417441 19.417441,0.29999924 43,0.29999924 66.582559,0.29999924 85.699797,19.417441 85.699797,43 z"/></g><g id="g13"><path style="opacity:.9;fill:#f0f0f0;fill-opacity:1" id="circle15" d="M 75.025002,43 C 75.025002,60.68692 60.68692,75.025002 43,75.025002 25.31308,75.025002 10.974998,60.68692 10.974998,43 10.974998,25.31308 25.31308,10.974998 43,10.974998 60.68692,10.974998 75.025002,25.31308 75.025002,43 z"/></g></g><g id="g4154"><rect id="rect3785-1-7" width="4" height="8" x="41" y="13" style="fill:#000;fill-opacity:1;fill-rule:nonzero;stroke:none"/><rect id="rect3785-1-7-4" width="4" height="8" x="41" y="65" style="fill:#000;fill-opacity:1;fill-rule:nonzero;stroke:none"/><rect id="rect3785-1-7-6" width="4" height="8" x="-45" y="13" transform="matrix(0,-1,1,0,0,0)" style="fill:#000;fill-opacity:1;fill-rule:nonzero;stroke:none"/><rect id="rect3785-1-7-4-1" width="4" height="8" x="-45" y="65" transform="matrix(0,-1,1,0,0,0)" style="fill:#000;fill-opacity:1;fill-rule:nonzero;stroke:none"/><rect id="rect3785-1-7-6-4" width="4" height="8" x="-60.739" y="-14.261" transform="matrix(-0.5,-0.8660254,0.8660254,-0.5,0,0)" style="fill:#000;fill-opacity:1;fill-rule:nonzero;stroke:none"/><rect id="rect3785-1-7-4-1-2" width="4" height="8" x="-60.739" y="37.739" transform="matrix(-0.5,-0.8660254,0.8660254,-0.5,0,0)" style="fill:#000;fill-opacity:1;fill-rule:nonzero;stroke:none"/><rect id="rect3785-1-7-6-3" width="4" height="8" x="-60.739" y="-45.739" transform="matrix(-0.8660254,-0.5,0.5,-0.8660254,0,0)" style="fill:#000;fill-opacity:1;fill-rule:nonzero;stroke:none"/><rect id="rect3785-1-7-4-1-22" width="4" height="8" x="-60.739" y="6.261" transform="matrix(-0.8660254,-0.5,0.5,-0.8660254,0,0)" style="fill:#000;fill-opacity:1;fill-rule:nonzero;stroke:none"/><rect id="rect3785-1-7-1" width="4" height="8" x="-17.739" y="28.739" transform="matrix(0.5,-0.8660254,0.8660254,0.5,0,0)" style="fill:#000;fill-opacity:1;fill-rule:nonzero;stroke:none"/><rect id="rect3785-1-7-4-6" width="4" height="8" x="-17.739" y="80.739" transform="matrix(0.5,-0.8660254,0.8660254,0.5,0,0)" style="fill:#000;fill-opacity:1;fill-rule:nonzero;stroke:none"/><rect id="rect3785-1-7-8" width="4" height="8" x="13.739" y="28.739" transform="matrix(0.8660254,-0.5,0.5,0.8660254,0,0)" style="fill:#000;fill-opacity:1;fill-rule:nonzero;stroke:none"/><rect id="rect3785-1-7-4-5" width="4" height="8" x="13.739" y="80.739" transform="matrix(0.8660254,-0.5,0.5,0.8660254,0,0)" style="fill:#000;fill-opacity:1;fill-rule:nonzero;stroke:none"/></g><path style="fill:#000;fill-opacity:1;fill-rule:nonzero;stroke:none" id="rect4129" d="m 28.192241,35.866959 2.866668,-4.094027 18.226192,11.705579 -3.859489,5.511921 z"/><path style="fill:#000;fill-opacity:1;fill-rule:nonzero;stroke:none" id="rect4133" d="m 35.736599,49.1 -2.270231,-6.237409 28.83315,-9.427975 1.600321,4.396845 z"/><path style="fill:#ef4343;fill-opacity:1;fill-rule:nonzero;stroke:none" id="path4141" d="M 40.4375 34.59375 L 39.3125 34.96875 L 41.625 40.90625 C 40.940963 41.352337 40.5 42.122451 40.5 43 C 40.5 44.380712 41.619288 45.5 43 45.5 C 43.140726 45.5 43.271863 45.459847 43.40625 45.4375 L 47.125 54.90625 C 45.942046 55.601071 45.15625 56.903914 45.15625 58.375 C 45.15625 60.584139 46.947111 62.375 49.15625 62.375 C 51.365389 62.375 53.15625 60.584139 53.15625 58.375 C 53.15625 56.165861 51.365389 54.375 49.15625 54.375 C 48.821427 54.375 48.498327 54.422502 48.1875 54.5 L 44.5 45 C 45.111807 44.544282 45.5 43.821524 45.5 43 C 45.5 41.619288 44.380712 40.5 43 40.5 C 42.913706 40.5 42.834043 40.522715 42.75 40.53125 L 40.4375 34.59375 z"/><path style="fill:#f0f0f0;fill-opacity:1;fill-rule:nonzero;stroke:none" id="path4151" d="m 39.810712,27.572306 a 1.2239538,1.8037215 0 1 1 -2.447908,0 1.2239538,1.8037215 0 1 1 2.447908,0 z" transform="matrix(1.2255364,0,0,0.83161395,-4.2894761,20.070486)"/><path style="fill:#000;fill-opacity:1;fill-rule:nonzero;stroke:none" id="path4149" d="m 7.6525425,5.6483049 a 1.4576272,1.2754238 0 1 1 -2.9152544,0 1.4576272,1.2754238 0 1 1 2.9152544,0 z" transform="matrix(0.34302324,0,0,0.39202657,40.875,40.785714)"/></svg>